<?xml version="1.0" encoding="utf-8"?>
<!-- Generator: Adobe Illustrator 28.1.0, SVG Export Plug-In . SVG Version: 6.00 Build 0)  -->
<svg version="1.1" xmlns="http://www.w3.org/2000/svg" xmlns:xlink="http://www.w3.org/1999/xlink" x="0px" y="0px"
	 viewBox="0 0 24 24" style="enable-background:new 0 0 24 24;" xml:space="preserve">
<style type="text/css">
	.st0{fill:#3245DF;}
</style>
<path class="st0" d="M5,12.6c2.4-0.5,2.1-3.4,2-4c-0.1-1-1.2-2.6-2.8-2.5c-1.9,0.2-2.2,3-2.2,3C1.7,10.3,2.6,13.1,5,12.6z M7.5,17.6
	c-0.1,0.2-0.2,0.7-0.1,1.2c0.3,1,1.1,1,1.1,1h1.3v-3.1H8.5C7.9,16.9,7.6,17.4,7.5,17.6z M9.4,7.8c1.3,0,2.4-1.5,2.4-3.4
	S10.7,1,9.4,1S7,2.5,7,4.4S8.1,7.8,9.4,7.8z M15.1,8c1.8,0.2,2.9-1.7,3.1-3.1s-0.9-3.1-2.2-3.4s-2.8,1.7-3,3
	C12.9,6.2,13.3,7.8,15.1,8z M19.4,16.4c0,0-2.7-2.1-4.3-4.4c-2.2-3.4-5.2-2-6.3-0.3c-1,1.7-2.6,2.8-2.8,3.1s-3.3,1.9-2.6,5
	s3.1,3,3.1,3s1.8,0.2,3.8-0.3s3.8,0.1,3.8,0.1s4.8,1.6,6.1-1.5S19.4,16.4,19.4,16.4z M11.2,21H8.1c-1.3-0.3-1.9-1.2-1.9-1.3
	s-0.4-0.9-0.2-2.1c0.6-1.9,2.2-2,2.2-2h1.7v-2l1.4,0L11.2,21L11.2,21z M17,21h-3.6c-1.4-0.4-1.5-1.3-1.5-1.3v-4l1.5,0v3.6
	c0.1,0.4,0.6,0.4,0.6,0.4h1.5v-4H17L17,21L17,21z M22.1,10.4c0-0.7-0.6-2.7-2.7-2.7S17,9.6,17,11c0,1.3,0.1,3.1,2.7,3.1
	S22.1,11.1,22.1,10.4z"/>
</svg>
