<?xml version="1.0" encoding="utf-8"?>
<!-- Generator: Adobe Illustrator 28.1.0, SVG Export Plug-In . SVG Version: 6.00 Build 0)  -->
<svg version="1.1" xmlns="http://www.w3.org/2000/svg" xmlns:xlink="http://www.w3.org/1999/xlink" x="0px" y="0px"
	 viewBox="0 0 24 24" style="enable-background:new 0 0 24 24;" xml:space="preserve">
<style type="text/css">
	.st0{fill:#4285F4;}
	.st1{fill:#34A853;}
	.st2{fill:#FBBC05;}
	.st3{fill:#EB4335;}
</style>
<path class="st0" d="M22.8,12.2c0-0.9-0.1-1.6-0.2-2.2H12.2v4.1h6.1c-0.1,1-0.8,2.5-2.2,3.6l0,0.1l3.3,2.5l0.2,0
	C21.6,18.4,22.8,15.6,22.8,12.2"/>
<path class="st1" d="M12.2,23c3,0,5.5-1,7.3-2.7L16,17.6c-0.9,0.6-2.2,1.1-3.8,1.1c-2.9,0-5.4-1.9-6.3-4.6l-0.1,0l-3.4,2.6l0,0.1
	C4.2,20.5,7.9,23,12.2,23"/>
<path class="st2" d="M6,14.2c-0.2-0.7-0.4-1.4-0.4-2.2c0-0.8,0.1-1.5,0.4-2.2l0-0.1L2.5,7L2.4,7.1C1.6,8.6,1.2,10.2,1.2,12
	s0.4,3.4,1.2,4.9L6,14.2"/>
<path class="st3" d="M12.2,5.3c2.1,0,3.5,0.9,4.3,1.6l3.1-3C17.7,2.1,15.2,1,12.2,1c-4.3,0-8,2.5-9.8,6.1L6,9.8
	C6.8,7.2,9.3,5.3,12.2,5.3"/>
</svg>
